<?xml version="1.0" encoding="utf-8"?>
<!-- Generator: Adobe Illustrator 18.1.1, SVG Export Plug-In . SVG Version: 6.00 Build 0)  -->
<!DOCTYPE svg PUBLIC "-//W3C//DTD SVG 1.1//EN" "http://www.w3.org/Graphics/SVG/1.1/DTD/svg11.dtd">
<svg version="1.1" id="Layer_1" xmlns:sketch="http://www.bohemiancoding.com/sketch/ns"
	 xmlns="http://www.w3.org/2000/svg" xmlns:xlink="http://www.w3.org/1999/xlink" x="0px" y="0px" viewBox="0 0 500 500"
	 enable-background="new 0 0 500 500" xml:space="preserve">
<path id="apple" sketch:type="MSShapeGroup" fill="#A6B1B7" d="M369.4,263c-1.1-62.2,51.1-92.2,53.3-93.3
	c-28.9-42.2-73.3-47.8-90-48.9c-37.8-4.4-74.4,22.2-93.3,22.2c-20,0-48.9-22.2-81.1-21.1c-41.1,1.1-78.9,24.4-100,61.1
	C15,258.6,47.2,368.6,89.4,429.7c21.1,30,45.6,63.3,76.7,62.2s42.2-20,80-20c37.8,0,47.8,20,81.1,18.9c33.3,0,54.4-30,74.4-60
	c24.4-34.4,33.3-67.8,34.4-68.9C433.9,361.9,370.6,337.4,369.4,263z M308.3,81.9C325,60.8,336.1,33,333.9,3
	c-24.4,1.1-54.4,16.7-72.2,37.8c-15.6,17.8-28.9,47.8-25.6,75.6C262.8,117.4,290.6,101.9,308.3,81.9z"/>
</svg>
